<svg height="378.44635" viewBox="0 0 100.1306 100.13059" width="378.44635" xmlns="http://www.w3.org/2000/svg">
<g transform="translate(-57.084,-16.7674)">
<path d="m107.1493,16.8327a50,50 0 0,1 50,50 50,50 0 0,1 -50,50 50,50 0 0,1 -50-50 50,50 0 0,1 50-50" fill="#1a1a1a" fill-opacity=".98" opacity=".98" stroke="#7a7a7a" stroke-width=".1306"/>
<g fill="#ccc" font-family="sans-serif" font-size="4.882" letter-spacing="0" word-spacing="0">
<path d="m107.1886,45.3606v.8455h-5.487v-.8455z" fill="#ccc"/>
<path d="m118.1537,45.3606v.8455h-5.487v-.8455z" fill="#ccc"/>
<path d="m123.6362,45.3606v.8455h-5.487v-.8455z" fill="#ccc"/>
<path d="m129.1188,45.3606v.8455h-5.487v-.8455z" fill="#ccc"/>
<path d="m134.6013,45.3606v.8455h-5.487v-.8455z" fill="#ccc"/>
<path d="m79.7759,56.2972v.8455h-5.487v-.8455z" fill="#ccc"/>
<path d="m90.741,56.2972v.8455h-5.487v-.8455z" fill="#ccc"/>
<path d="m100.331,48.0778q-.5874,1.0636-.8722,2.0604t-.2848,1.9937q0,.9879.2848,1.9937 .2848,1.0013.8722,2.0693h-1.0146q-.7076-1.028-1.0502-2.0248t-.3427-2.0382q0-1.0324.3427-2.0337 .3471-1.0057 1.0502-2.0204z" fill="#ccc"/>
<path d="m107.1886,56.2972v.8455h-5.487v-.8455z" fill="#ccc"/>
<path d="m108.5592,48.0778h1.0146q.7031,1.0146 1.0458,2.0204 .3471,1.0013.3471,2.0337 0,1.0369-.3427,2.0382t-1.0502,2.0248h-1.0146q.5874-1.068.8722-2.0693 .2848-1.0057.2848-1.9937 0-.9968-.2848-1.9937t-.8722-2.0604z" fill="#ccc"/>
<path d="m118.1537,56.2972v.8455h-5.487v-.8455z" fill="#ccc"/>
<path d="m133.115,48.3492h.9835l-3.4978,7.4895h-.9835z" fill="#ccc"/>
<path d="m145.5664,56.2972v.8455h-5.487v-.8455z" fill="#ccc"/>
<path d="m151.0489,56.2972v.8455h-5.487v-.8455z" fill="#ccc"/>
<path d="m72.807,59.2859h.9835l-3.4978,7.4895h-.9835z" fill="#ccc"/>
<path d="m83.0779,59.2859v2.4698h-1.1392v-2.4698z" fill="#ccc"/>
<path d="m94.0429,59.2859v2.4698h-1.1392v-2.4698z" fill="#ccc"/>
<path d="m99.4632,58.9654v9.1138h-1.0102v-9.1138z" fill="#ccc"/>
<path d="m110.4283,58.9654v9.1138h-1.0102v-9.1138z" fill="#ccc"/>
<path d="m116.6673,59.2859h.9835l-3.4978,7.4895h-.9835z" fill="#ccc"/>
<path d="m127.6324,59.2859h.9835l-3.4978,7.4895h-.9835z" fill="#ccc"/>
<path d="m130.6007,59.2859 3.4978,7.4895h-.9924l-3.4978-7.4895z" fill="#ccc"/>
<path d="m138.5975,59.2859h.9835l-3.4978,7.4895h-.9835z" fill="#ccc"/>
<path d="m149.5626,59.2859h.9835l-3.4978,7.4895h-.9835z" fill="#ccc"/>
<path d="m66.5679,69.9021v9.1138h-1.0102v-9.1138z" fill="#ccc"/>
<path d="m74.2933,78.1704v.8455h-5.487v-.8455z" fill="#ccc"/>
<path d="m77.533,69.9021v9.1138h-1.0102v-9.1138z" fill="#ccc"/>
<path d="m85.2584,78.1704v.8455h-5.487v-.8455z" fill="#ccc"/>
<path d="m88.4981,69.9021v9.1138h-1.0102v-9.1138z" fill="#ccc"/>
<path d="m96.2235,78.1704v.8455h-5.487v-.8455z" fill="#ccc"/>
<path d="m99.4632,69.9021v9.1138h-1.0102v-9.1138z" fill="#ccc"/>
<path d="m107.1886,78.1704v.8455h-5.487v-.8455z" fill="#ccc"/>
<path d="m111.1848,70.2225h.9835l-3.4978,7.4895h-.9835z" fill="#ccc"/>
<path d="m122.1499,70.2225h.9835l-3.4978,7.4895h-.9835z" fill="#ccc"/>
<path d="m125.1181,70.2225 3.4978,7.4895h-.9924l-3.4978-7.4895z" fill="#ccc"/>
<path d="m144.08,70.2225h.9835l-3.4978,7.4895h-.9835z" fill="#ccc"/>
<path d="m105.7022,81.1591h.9835l-3.4978,7.4895h-.9835z" fill="#ccc"/>
<path d="m112.6711,89.107v.8455h-5.487v-.8455z" fill="#ccc"/>
<path d="m118.1537,89.107v.8455h-5.487v-.8455z" fill="#ccc"/>
<path d="m123.6362,89.107v.8455h-5.487v-.8455z" fill="#ccc"/>
<path d="m127.6324,81.1591h.9835l-3.4978,7.4895h-.9835z" fill="#ccc"/>
<path d="m134.6013,89.107v.8455h-5.487v-.8455z" fill="#ccc"/>
<path d="m138.5975,81.1591h.9835l-3.4978,7.4895h-.9835z" fill="#ccc"/>
</g>
</g>
</svg>
