<?xml version="1.0" encoding="UTF-8" standalone="no"?>
<!-- Created with Inkscape (http://www.inkscape.org/) -->

<svg
   xmlns:dc="http://purl.org/dc/elements/1.1/"
   xmlns:cc="http://creativecommons.org/ns#"
   xmlns:rdf="http://www.w3.org/1999/02/22-rdf-syntax-ns#"
   xmlns:svg="http://www.w3.org/2000/svg"
   xmlns="http://www.w3.org/2000/svg"
   xmlns:sodipodi="http://sodipodi.sourceforge.net/DTD/sodipodi-0.dtd"
   xmlns:inkscape="http://www.inkscape.org/namespaces/inkscape"
   width="1098.2356"
   height="440.57675"
   viewBox="0 0 290.57484 116.56926"
   version="1.1"
   id="svg8"
   inkscape:version="0.92.2 (5c3e80d, 2017-08-06)"
   sodipodi:docname="mizy.black.svg">
  <defs
     id="defs2" />
  <sodipodi:namedview
     id="base"
     pagecolor="#ffffff"
     bordercolor="#666666"
     borderopacity="1.0"
     inkscape:pageopacity="0.0"
     inkscape:pageshadow="2"
     inkscape:zoom="0.70710678"
     inkscape:cx="534.49102"
     inkscape:cy="261.00629"
     inkscape:document-units="mm"
     inkscape:current-layer="text4506"
     showgrid="false"
     fit-margin-top="0"
     fit-margin-left="0"
     fit-margin-right="0"
     fit-margin-bottom="0"
     units="px"
     inkscape:window-width="1920"
     inkscape:window-height="1021"
     inkscape:window-x="0"
     inkscape:window-y="0"
     inkscape:window-maximized="1" />
  <metadata
     id="metadata5">
    <rdf:RDF>
      <cc:Work
         rdf:about="">
        <dc:format>image/svg+xml</dc:format>
        <dc:type
           rdf:resource="http://purl.org/dc/dcmitype/StillImage" />
        <dc:title></dc:title>
      </cc:Work>
    </rdf:RDF>
  </metadata>
  <g
     inkscape:label="Layer 1"
     inkscape:groupmode="layer"
     id="layer1"
     transform="translate(29.879465,-9.2838169)">
    <rect
       style="opacity:0.98000004;vector-effect:none;fill:#1a1a1a;fill-opacity:0.9803921;stroke:#7a7a7a;stroke-width:0.1306008;stroke-linecap:butt;stroke-linejoin:miter;stroke-miterlimit:4;stroke-dasharray:none;stroke-dashoffset:0;stroke-opacity:1"
       id="rect4524-2"
       width="180.19423"
       height="116.43867"
       x="23.099133"
       y="9.3491173"
       ry="12.517159" />
    <g
       aria-label="            http://hyphop.github.io/mizy
                        _ ____         
                   _ _ (_)_  / __      
                  / ' '| |/ /\/ /      
                 |_|_|_|_/ /\  /       
                        /___/_/        

              tiny fast embedded linux
"
       style="font-style:normal;font-weight:normal;font-size:4.88241386px;line-height:1.25;font-family:sans-serif;letter-spacing:0px;word-spacing:0px;fill:#cccccc;fill-opacity:1;stroke:none;stroke-width:0.12206034"
       id="text4506">
      <path
         d="m 107.18858,45.360552 v 0.845522 h -5.48699 v -0.845522 z"
         style="font-style:normal;font-variant:normal;font-weight:bold;font-stretch:normal;font-size:9.11383915px;line-height:1.20000005;font-family:'Bitstream Vera Sans Mono';-inkscape-font-specification:'Bitstream Vera Sans Mono Bold';fill:#cccccc;stroke-width:0.12206034"
         id="path879" />
      <path
         d="m 118.15367,45.360552 v 0.845522 h -5.48699 v -0.845522 z"
         style="font-style:normal;font-variant:normal;font-weight:bold;font-stretch:normal;font-size:9.11383915px;line-height:1.20000005;font-family:'Bitstream Vera Sans Mono';-inkscape-font-specification:'Bitstream Vera Sans Mono Bold';fill:#cccccc;stroke-width:0.12206034"
         id="path881" />
      <path
         d="m 123.63622,45.360552 v 0.845522 h -5.487 v -0.845522 z"
         style="font-style:normal;font-variant:normal;font-weight:bold;font-stretch:normal;font-size:9.11383915px;line-height:1.20000005;font-family:'Bitstream Vera Sans Mono';-inkscape-font-specification:'Bitstream Vera Sans Mono Bold';fill:#cccccc;stroke-width:0.12206034"
         id="path883" />
      <path
         d="m 129.11876,45.360552 v 0.845522 h -5.48699 v -0.845522 z"
         style="font-style:normal;font-variant:normal;font-weight:bold;font-stretch:normal;font-size:9.11383915px;line-height:1.20000005;font-family:'Bitstream Vera Sans Mono';-inkscape-font-specification:'Bitstream Vera Sans Mono Bold';fill:#cccccc;stroke-width:0.12206034"
         id="path885" />
      <path
         d="m 134.6013,45.360552 v 0.845522 h -5.48699 v -0.845522 z"
         style="font-style:normal;font-variant:normal;font-weight:bold;font-stretch:normal;font-size:9.11383915px;line-height:1.20000005;font-family:'Bitstream Vera Sans Mono';-inkscape-font-specification:'Bitstream Vera Sans Mono Bold';fill:#cccccc;stroke-width:0.12206034"
         id="path887" />
      <path
         d="m 79.775864,56.297159 v 0.845522 H 74.28887 v -0.845522 z"
         style="font-style:normal;font-variant:normal;font-weight:bold;font-stretch:normal;font-size:9.11383915px;line-height:1.20000005;font-family:'Bitstream Vera Sans Mono';-inkscape-font-specification:'Bitstream Vera Sans Mono Bold';fill:#cccccc;stroke-width:0.12206034"
         id="path889" />
      <path
         d="m 90.740952,56.297159 v 0.845522 h -5.486994 v -0.845522 z"
         style="font-style:normal;font-variant:normal;font-weight:bold;font-stretch:normal;font-size:9.11383915px;line-height:1.20000005;font-family:'Bitstream Vera Sans Mono';-inkscape-font-specification:'Bitstream Vera Sans Mono Bold';fill:#cccccc;stroke-width:0.12206034"
         id="path891" />
      <path
         d="m 100.33095,48.077793 q -0.587412,1.063578 -0.872219,2.060404 -0.284808,0.996827 -0.284808,1.993653 0,0.987926 0.284808,1.993652 0.284807,1.001276 0.872219,2.069304 H 99.316327 Q 98.608758,55.166829 98.266099,54.170003 97.92344,53.168727 97.92344,52.13185 q 0,-1.032427 0.342659,-2.033704 0.347109,-1.005726 1.050228,-2.020353 z"
         style="font-style:normal;font-variant:normal;font-weight:bold;font-stretch:normal;font-size:9.11383915px;line-height:1.20000005;font-family:'Bitstream Vera Sans Mono';-inkscape-font-specification:'Bitstream Vera Sans Mono Bold';fill:#cccccc;stroke-width:0.12206034"
         id="path893" />
      <path
         d="m 107.18858,56.297159 v 0.845522 h -5.48699 v -0.845522 z"
         style="font-style:normal;font-variant:normal;font-weight:bold;font-stretch:normal;font-size:9.11383915px;line-height:1.20000005;font-family:'Bitstream Vera Sans Mono';-inkscape-font-specification:'Bitstream Vera Sans Mono Bold';fill:#cccccc;stroke-width:0.12206034"
         id="path895" />
      <path
         d="m 108.55922,48.077793 h 1.01463 q 0.70311,1.014627 1.04577,2.020353 0.34711,1.001277 0.34711,2.033704 0,1.036877 -0.34266,2.038153 -0.34266,0.996826 -1.05022,2.024803 h -1.01463 q 0.58742,-1.068028 0.87222,-2.069304 0.28481,-1.005726 0.28481,-1.993652 0,-0.996826 -0.28481,-1.993653 -0.2848,-0.996826 -0.87222,-2.060404 z"
         style="font-style:normal;font-variant:normal;font-weight:bold;font-stretch:normal;font-size:9.11383915px;line-height:1.20000005;font-family:'Bitstream Vera Sans Mono';-inkscape-font-specification:'Bitstream Vera Sans Mono Bold';fill:#cccccc;stroke-width:0.12206034"
         id="path897" />
      <path
         d="m 118.15367,56.297159 v 0.845522 h -5.48699 v -0.845522 z"
         style="font-style:normal;font-variant:normal;font-weight:bold;font-stretch:normal;font-size:9.11383915px;line-height:1.20000005;font-family:'Bitstream Vera Sans Mono';-inkscape-font-specification:'Bitstream Vera Sans Mono Bold';fill:#cccccc;stroke-width:0.12206034"
         id="path899" />
      <path
         d="m 133.11496,48.34925 h 0.98348 l -3.49779,7.489547 h -0.98348 z"
         style="font-style:normal;font-variant:normal;font-weight:bold;font-stretch:normal;font-size:9.11383915px;line-height:1.20000005;font-family:'Bitstream Vera Sans Mono';-inkscape-font-specification:'Bitstream Vera Sans Mono Bold';fill:#cccccc;stroke-width:0.12206034"
         id="path901" />
      <path
         d="m 145.56639,56.297159 v 0.845522 h -5.48699 v -0.845522 z"
         style="font-style:normal;font-variant:normal;font-weight:bold;font-stretch:normal;font-size:9.11383915px;line-height:1.20000005;font-family:'Bitstream Vera Sans Mono';-inkscape-font-specification:'Bitstream Vera Sans Mono Bold';fill:#cccccc;stroke-width:0.12206034"
         id="path903" />
      <path
         d="m 151.04894,56.297159 v 0.845522 h -5.487 v -0.845522 z"
         style="font-style:normal;font-variant:normal;font-weight:bold;font-stretch:normal;font-size:9.11383915px;line-height:1.20000005;font-family:'Bitstream Vera Sans Mono';-inkscape-font-specification:'Bitstream Vera Sans Mono Bold';fill:#cccccc;stroke-width:0.12206034"
         id="path905" />
      <path
         d="m 72.806981,59.285858 h 0.983476 l -3.497792,7.489546 h -0.983476 z"
         style="font-style:normal;font-variant:normal;font-weight:bold;font-stretch:normal;font-size:9.11383915px;line-height:1.20000005;font-family:'Bitstream Vera Sans Mono';-inkscape-font-specification:'Bitstream Vera Sans Mono Bold';fill:#cccccc;stroke-width:0.12206034"
         id="path907" />
      <path
         d="m 83.077851,59.285858 v 2.469815 h -1.13923 v -2.469815 z"
         style="font-style:normal;font-variant:normal;font-weight:bold;font-stretch:normal;font-size:9.11383915px;line-height:1.20000005;font-family:'Bitstream Vera Sans Mono';-inkscape-font-specification:'Bitstream Vera Sans Mono Bold';fill:#cccccc;stroke-width:0.12206034"
         id="path909" />
      <path
         d="m 94.042938,59.285858 v 2.469815 h -1.139229 v -2.469815 z"
         style="font-style:normal;font-variant:normal;font-weight:bold;font-stretch:normal;font-size:9.11383915px;line-height:1.20000005;font-family:'Bitstream Vera Sans Mono';-inkscape-font-specification:'Bitstream Vera Sans Mono Bold';fill:#cccccc;stroke-width:0.12206034"
         id="path911" />
      <path
         d="m 99.463181,58.965449 v 9.11384 h -1.010177 v -9.11384 z"
         style="font-style:normal;font-variant:normal;font-weight:bold;font-stretch:normal;font-size:9.11383915px;line-height:1.20000005;font-family:'Bitstream Vera Sans Mono';-inkscape-font-specification:'Bitstream Vera Sans Mono Bold';fill:#cccccc;stroke-width:0.12206034"
         id="path913" />
      <path
         d="m 110.42827,58.965449 v 9.11384 h -1.01018 v -9.11384 z"
         style="font-style:normal;font-variant:normal;font-weight:bold;font-stretch:normal;font-size:9.11383915px;line-height:1.20000005;font-family:'Bitstream Vera Sans Mono';-inkscape-font-specification:'Bitstream Vera Sans Mono Bold';fill:#cccccc;stroke-width:0.12206034"
         id="path915" />
      <path
         d="m 116.66733,59.285858 h 0.98348 l -3.49779,7.489546 h -0.98348 z"
         style="font-style:normal;font-variant:normal;font-weight:bold;font-stretch:normal;font-size:9.11383915px;line-height:1.20000005;font-family:'Bitstream Vera Sans Mono';-inkscape-font-specification:'Bitstream Vera Sans Mono Bold';fill:#cccccc;stroke-width:0.12206034"
         id="path917" />
      <path
         d="m 127.63242,59.285858 h 0.98348 l -3.4978,7.489546 h -0.98347 z"
         style="font-style:normal;font-variant:normal;font-weight:bold;font-stretch:normal;font-size:9.11383915px;line-height:1.20000005;font-family:'Bitstream Vera Sans Mono';-inkscape-font-specification:'Bitstream Vera Sans Mono Bold';fill:#cccccc;stroke-width:0.12206034"
         id="path919" />
      <path
         d="m 130.60065,59.285858 3.49779,7.489546 h -0.99238 l -3.49779,-7.489546 z"
         style="font-style:normal;font-variant:normal;font-weight:bold;font-stretch:normal;font-size:9.11383915px;line-height:1.20000005;font-family:'Bitstream Vera Sans Mono';-inkscape-font-specification:'Bitstream Vera Sans Mono Bold';fill:#cccccc;stroke-width:0.12206034"
         id="path921" />
      <path
         d="m 138.59751,59.285858 h 0.98347 l -3.49779,7.489546 h -0.98347 z"
         style="font-style:normal;font-variant:normal;font-weight:bold;font-stretch:normal;font-size:9.11383915px;line-height:1.20000005;font-family:'Bitstream Vera Sans Mono';-inkscape-font-specification:'Bitstream Vera Sans Mono Bold';fill:#cccccc;stroke-width:0.12206034"
         id="path923" />
      <path
         d="m 149.5626,59.285858 h 0.98347 l -3.49779,7.489546 h -0.98348 z"
         style="font-style:normal;font-variant:normal;font-weight:bold;font-stretch:normal;font-size:9.11383915px;line-height:1.20000005;font-family:'Bitstream Vera Sans Mono';-inkscape-font-specification:'Bitstream Vera Sans Mono Bold';fill:#cccccc;stroke-width:0.12206034"
         id="path925" />
      <path
         d="m 66.567917,69.902057 v 9.113839 h -1.010176 v -9.113839 z"
         style="font-style:normal;font-variant:normal;font-weight:bold;font-stretch:normal;font-size:9.11383915px;line-height:1.20000005;font-family:'Bitstream Vera Sans Mono';-inkscape-font-specification:'Bitstream Vera Sans Mono Bold';fill:#cccccc;stroke-width:0.12206034"
         id="path927" />
      <path
         d="m 74.29332,78.170374 v 0.845522 h -5.486994 v -0.845522 z"
         style="font-style:normal;font-variant:normal;font-weight:bold;font-stretch:normal;font-size:9.11383915px;line-height:1.20000005;font-family:'Bitstream Vera Sans Mono';-inkscape-font-specification:'Bitstream Vera Sans Mono Bold';fill:#cccccc;stroke-width:0.12206034"
         id="path929" />
      <path
         d="m 77.533005,69.902057 v 9.113839 h -1.010177 v -9.113839 z"
         style="font-style:normal;font-variant:normal;font-weight:bold;font-stretch:normal;font-size:9.11383915px;line-height:1.20000005;font-family:'Bitstream Vera Sans Mono';-inkscape-font-specification:'Bitstream Vera Sans Mono Bold';fill:#cccccc;stroke-width:0.12206034"
         id="path931" />
      <path
         d="m 85.258408,78.170374 v 0.845522 h -5.486994 v -0.845522 z"
         style="font-style:normal;font-variant:normal;font-weight:bold;font-stretch:normal;font-size:9.11383915px;line-height:1.20000005;font-family:'Bitstream Vera Sans Mono';-inkscape-font-specification:'Bitstream Vera Sans Mono Bold';fill:#cccccc;stroke-width:0.12206034"
         id="path933" />
      <path
         d="m 88.498093,69.902057 v 9.113839 h -1.010177 v -9.113839 z"
         style="font-style:normal;font-variant:normal;font-weight:bold;font-stretch:normal;font-size:9.11383915px;line-height:1.20000005;font-family:'Bitstream Vera Sans Mono';-inkscape-font-specification:'Bitstream Vera Sans Mono Bold';fill:#cccccc;stroke-width:0.12206034"
         id="path935" />
      <path
         d="m 96.223496,78.170374 v 0.845522 h -5.486994 v -0.845522 z"
         style="font-style:normal;font-variant:normal;font-weight:bold;font-stretch:normal;font-size:9.11383915px;line-height:1.20000005;font-family:'Bitstream Vera Sans Mono';-inkscape-font-specification:'Bitstream Vera Sans Mono Bold';fill:#cccccc;stroke-width:0.12206034"
         id="path937" />
      <path
         d="m 99.463181,69.902057 v 9.113839 h -1.010177 v -9.113839 z"
         style="font-style:normal;font-variant:normal;font-weight:bold;font-stretch:normal;font-size:9.11383915px;line-height:1.20000005;font-family:'Bitstream Vera Sans Mono';-inkscape-font-specification:'Bitstream Vera Sans Mono Bold';fill:#cccccc;stroke-width:0.12206034"
         id="path939" />
      <path
         d="m 107.18858,78.170374 v 0.845522 h -5.48699 v -0.845522 z"
         style="font-style:normal;font-variant:normal;font-weight:bold;font-stretch:normal;font-size:9.11383915px;line-height:1.20000005;font-family:'Bitstream Vera Sans Mono';-inkscape-font-specification:'Bitstream Vera Sans Mono Bold';fill:#cccccc;stroke-width:0.12206034"
         id="path941" />
      <path
         d="m 111.18479,70.222465 h 0.98347 l -3.49779,7.489547 H 107.687 Z"
         style="font-style:normal;font-variant:normal;font-weight:bold;font-stretch:normal;font-size:9.11383915px;line-height:1.20000005;font-family:'Bitstream Vera Sans Mono';-inkscape-font-specification:'Bitstream Vera Sans Mono Bold';fill:#cccccc;stroke-width:0.12206034"
         id="path943" />
      <path
         d="m 122.14988,70.222465 h 0.98347 l -3.49779,7.489547 h -0.98348 z"
         style="font-style:normal;font-variant:normal;font-weight:bold;font-stretch:normal;font-size:9.11383915px;line-height:1.20000005;font-family:'Bitstream Vera Sans Mono';-inkscape-font-specification:'Bitstream Vera Sans Mono Bold';fill:#cccccc;stroke-width:0.12206034"
         id="path945" />
      <path
         d="m 125.1181,70.222465 3.4978,7.489547 h -0.99238 l -3.49779,-7.489547 z"
         style="font-style:normal;font-variant:normal;font-weight:bold;font-stretch:normal;font-size:9.11383915px;line-height:1.20000005;font-family:'Bitstream Vera Sans Mono';-inkscape-font-specification:'Bitstream Vera Sans Mono Bold';fill:#cccccc;stroke-width:0.12206034"
         id="path947" />
      <path
         d="m 144.08005,70.222465 h 0.98348 l -3.49779,7.489547 h -0.98348 z"
         style="font-style:normal;font-variant:normal;font-weight:bold;font-stretch:normal;font-size:9.11383915px;line-height:1.20000005;font-family:'Bitstream Vera Sans Mono';-inkscape-font-specification:'Bitstream Vera Sans Mono Bold';fill:#cccccc;stroke-width:0.12206034"
         id="path949" />
      <path
         d="m 105.70224,81.159073 h 0.98348 l -3.49779,7.489546 h -0.98348 z"
         style="font-style:normal;font-variant:normal;font-weight:bold;font-stretch:normal;font-size:9.11383915px;line-height:1.20000005;font-family:'Bitstream Vera Sans Mono';-inkscape-font-specification:'Bitstream Vera Sans Mono Bold';fill:#cccccc;stroke-width:0.12206034"
         id="path951" />
      <path
         d="m 112.67113,89.106981 v 0.845522 h -5.487 v -0.845522 z"
         style="font-style:normal;font-variant:normal;font-weight:bold;font-stretch:normal;font-size:9.11383915px;line-height:1.20000005;font-family:'Bitstream Vera Sans Mono';-inkscape-font-specification:'Bitstream Vera Sans Mono Bold';fill:#cccccc;stroke-width:0.12206034"
         id="path953" />
      <path
         d="m 118.15367,89.106981 v 0.845522 h -5.48699 v -0.845522 z"
         style="font-style:normal;font-variant:normal;font-weight:bold;font-stretch:normal;font-size:9.11383915px;line-height:1.20000005;font-family:'Bitstream Vera Sans Mono';-inkscape-font-specification:'Bitstream Vera Sans Mono Bold';fill:#cccccc;stroke-width:0.12206034"
         id="path955" />
      <path
         d="m 123.63622,89.106981 v 0.845522 h -5.487 v -0.845522 z"
         style="font-style:normal;font-variant:normal;font-weight:bold;font-stretch:normal;font-size:9.11383915px;line-height:1.20000005;font-family:'Bitstream Vera Sans Mono';-inkscape-font-specification:'Bitstream Vera Sans Mono Bold';fill:#cccccc;stroke-width:0.12206034"
         id="path957" />
      <path
         d="m 127.63242,81.159073 h 0.98348 l -3.4978,7.489546 h -0.98347 z"
         style="font-style:normal;font-variant:normal;font-weight:bold;font-stretch:normal;font-size:9.11383915px;line-height:1.20000005;font-family:'Bitstream Vera Sans Mono';-inkscape-font-specification:'Bitstream Vera Sans Mono Bold';fill:#cccccc;stroke-width:0.12206034"
         id="path959" />
      <path
         d="m 134.6013,89.106981 v 0.845522 h -5.48699 v -0.845522 z"
         style="font-style:normal;font-variant:normal;font-weight:bold;font-stretch:normal;font-size:9.11383915px;line-height:1.20000005;font-family:'Bitstream Vera Sans Mono';-inkscape-font-specification:'Bitstream Vera Sans Mono Bold';fill:#cccccc;stroke-width:0.12206034"
         id="path961" />
      <path
         d="m 138.59751,81.159073 h 0.98347 l -3.49779,7.489546 h -0.98347 z"
         style="font-style:normal;font-variant:normal;font-weight:bold;font-stretch:normal;font-size:9.11383915px;line-height:1.20000005;font-family:'Bitstream Vera Sans Mono';-inkscape-font-specification:'Bitstream Vera Sans Mono Bold';fill:#cccccc;stroke-width:0.12206034"
         id="path963" />
      <path
         d="m 49.946731,98.443454 v 1.415137 h 1.704394 v 1.001279 h -1.704394 v 2.35856 q 0,0.33376 0.160204,0.48061 0.164654,0.14241 0.542914,0.14241 h 1.001276 v 1.00127 h -1.094728 q -1.12143,0 -1.51749,-0.35601 -0.396061,-0.36046 -0.396061,-1.33058 v -2.29626 h -1.272733 v -1.001279 h 1.272733 v -1.415137 z"
         style="font-style:normal;font-variant:normal;font-weight:bold;font-stretch:normal;font-size:9.11383915px;line-height:1.20000005;font-family:'Bitstream Vera Sans Mono';-inkscape-font-specification:'Bitstream Vera Sans Mono Bold';fill:#cccccc;stroke-width:0.12206034"
         id="path965" />
      <path
         d="m 53.34217,99.858591 h 2.581068 v 3.982859 h 1.619842 v 1.00127 h -4.548019 v -1.00127 h 1.624292 v -2.98158 H 53.34217 Z m 1.277183,-2.425314 h 1.303885 v 1.52194 h -1.303885 z"
         style="font-style:normal;font-variant:normal;font-weight:bold;font-stretch:normal;font-size:9.11383915px;line-height:1.20000005;font-family:'Bitstream Vera Sans Mono';-inkscape-font-specification:'Bitstream Vera Sans Mono Bold';fill:#cccccc;stroke-width:0.12206034"
         id="path967" />
      <path
         d="m 62.607313,101.60749 v 3.23523 h -1.294984 v -3.03498 q 0,-0.54291 -0.155754,-0.77432 -0.151304,-0.23585 -0.498413,-0.23585 -0.351559,0 -0.556265,0.31595 -0.200255,0.31596 -0.200255,0.87668 v 2.85252 h -1.294984 v -4.984129 h 1.294984 v 0.747619 q 0.137954,-0.41386 0.471712,-0.640816 0.333759,-0.226956 0.805472,-0.226956 0.707568,0 1.068028,0.471712 0.360459,0.46726 0.360459,1.39734 z"
         style="font-style:normal;font-variant:normal;font-weight:bold;font-stretch:normal;font-size:9.11383915px;line-height:1.20000005;font-family:'Bitstream Vera Sans Mono';-inkscape-font-specification:'Bitstream Vera Sans Mono Bold';fill:#cccccc;stroke-width:0.12206034"
         id="path969" />
      <path
         d="m 66.487815,105.38119 q -0.262557,0.70311 -0.631917,1.02352 -0.364909,0.32486 -0.890023,0.32486 h -1.076928 v -0.99237 h 0.529564 q 0.40051,0 0.587415,-0.13796 0.186905,-0.1335 0.37826,-0.62746 l 0.0979,-0.26701 -1.89575,-4.846179 h 1.370636 l 1.13923,3.235239 1.090278,-3.235239 h 1.370636 z"
         style="font-style:normal;font-variant:normal;font-weight:bold;font-stretch:normal;font-size:9.11383915px;line-height:1.20000005;font-family:'Bitstream Vera Sans Mono';-inkscape-font-specification:'Bitstream Vera Sans Mono Bold';fill:#cccccc;stroke-width:0.12206034"
         id="path971" />
      <path
         d="m 77.577506,99.42248 v 0.436111 h 1.53084 v 1.001279 h -1.53084 v 3.98285 h -1.303884 v -3.98285 H 75.06319 v -1.001279 h 1.210432 v -0.347109 q 0,-0.898924 0.37381,-1.246033 0.37381,-0.347109 1.388436,-0.347109 h 1.072478 v 1.001276 H 78.08927 q -0.293708,0 -0.400511,0.106803 -0.102353,0.106803 -0.111253,0.396061 z"
         style="font-style:normal;font-variant:normal;font-weight:bold;font-stretch:normal;font-size:9.11383915px;line-height:1.20000005;font-family:'Bitstream Vera Sans Mono';-inkscape-font-specification:'Bitstream Vera Sans Mono Bold';fill:#cccccc;stroke-width:0.12206034"
         id="path973" />
      <path
         d="m 82.886496,102.50196 q -0.72982,0 -1.019077,0.18691 -0.289258,0.1869 -0.289258,0.64081 0,0.33821 0.200255,0.53847 0.200256,0.20025 0.542915,0.20025 0.516213,0 0.801021,-0.38716 0.284807,-0.39161 0.284807,-1.09028 v -0.089 z m 1.815647,-0.50286 v 2.84362 h -1.294984 v -0.55626 q -0.235856,0.32931 -0.605216,0.50731 -0.369359,0.17801 -0.814371,0.17801 -0.849972,0 -1.326135,-0.44947 -0.471712,-0.44946 -0.471712,-1.25493 0,-0.87222 0.565165,-1.28608 0.565164,-0.41831 1.748896,-0.41831 h 0.903373 v -0.21806 q 0,-0.31596 -0.231406,-0.47616 -0.226956,-0.16466 -0.671967,-0.16466 -0.467263,0 -0.907824,0.12016 -0.436112,0.1157 -0.912274,0.37381 v -1.11253 q 0.431661,-0.178008 0.876673,-0.26256 0.445011,-0.08455 0.943425,-0.08455 1.214881,0 1.704394,0.493962 0.493963,0.49396 0.493963,1.7667 z"
         style="font-style:normal;font-variant:normal;font-weight:bold;font-stretch:normal;font-size:9.11383915px;line-height:1.20000005;font-family:'Bitstream Vera Sans Mono';-inkscape-font-specification:'Bitstream Vera Sans Mono Bold';fill:#cccccc;stroke-width:0.12206034"
         id="path975" />
      <path
         d="m 89.664023,100.01435 v 1.13922 q -0.360459,-0.2314 -0.752069,-0.3471 -0.38716,-0.12016 -0.778771,-0.12016 -0.436111,0 -0.658617,0.12906 -0.222506,0.1246 -0.222506,0.37381 0,0.35601 0.952325,0.57851 l 0.04895,0.0134 0.37381,0.089 q 0.712019,0.16911 1.041328,0.54737 0.333758,0.37381 0.333758,1.01462 0,0.76987 -0.507313,1.15704 -0.502863,0.38271 -1.51749,0.38271 -0.449462,0 -0.921174,-0.0801 -0.471712,-0.0757 -0.956775,-0.2314 v -1.13923 q 0.431661,0.24475 0.876673,0.37381 0.449462,0.12905 0.867773,0.12905 0.458362,0 0.694218,-0.1335 0.235856,-0.13351 0.235856,-0.38716 0,-0.24921 -0.169104,-0.38271 -0.164655,-0.13351 -0.792121,-0.28481 l -0.36046,-0.0801 q -0.747619,-0.16911 -1.090278,-0.52957 -0.342659,-0.36046 -0.342659,-0.96567 0,-0.72092 0.520663,-1.12143 0.520664,-0.400512 1.464089,-0.400512 0.422761,0 0.841072,0.0712 0.422761,0.06675 0.818821,0.20471 z"
         style="font-style:normal;font-variant:normal;font-weight:bold;font-stretch:normal;font-size:9.11383915px;line-height:1.20000005;font-family:'Bitstream Vera Sans Mono';-inkscape-font-specification:'Bitstream Vera Sans Mono Bold';fill:#cccccc;stroke-width:0.12206034"
         id="path977" />
      <path
         d="m 93.807082,98.443454 v 1.415137 h 1.704395 v 1.001279 h -1.704395 v 2.35856 q 0,0.33376 0.160204,0.48061 0.164655,0.14241 0.542915,0.14241 h 1.001276 v 1.00127 h -1.094729 q -1.121429,0 -1.51749,-0.35601 -0.39606,-0.36046 -0.39606,-1.33058 v -2.29626 h -1.272733 v -1.001279 h 1.272733 v -1.415137 z"
         style="font-style:normal;font-variant:normal;font-weight:bold;font-stretch:normal;font-size:9.11383915px;line-height:1.20000005;font-family:'Bitstream Vera Sans Mono';-inkscape-font-specification:'Bitstream Vera Sans Mono Bold';fill:#cccccc;stroke-width:0.12206034"
         id="path979" />
      <path
         d="m 106.60562,104.59797 q -0.45391,0.1869 -0.92563,0.28035 -0.47171,0.0935 -0.99682,0.0935 -1.25048,0 -1.91355,-0.66752 -0.65862,-0.67197 -0.65862,-1.93135 0,-1.21934 0.63637,-1.9269 0.63636,-0.707572 1.73554,-0.707572 1.10808,0 1.71775,0.658622 0.61411,0.65416 0.61411,1.84679 v 0.52957 h -3.37763 q 0.004,0.58741 0.3471,0.87667 0.34266,0.28926 1.02353,0.28926 0.44946,0 0.88557,-0.12906 0.43612,-0.12905 0.91228,-0.40941 z m -1.10363,-2.80358 q -0.009,-0.51621 -0.26701,-0.77877 -0.25365,-0.26701 -0.75207,-0.26701 -0.44946,0 -0.71647,0.27591 -0.267,0.27146 -0.31595,0.77432 z"
         style="font-style:normal;font-variant:normal;font-weight:bold;font-stretch:normal;font-size:9.11383915px;line-height:1.20000005;font-family:'Bitstream Vera Sans Mono';-inkscape-font-specification:'Bitstream Vera Sans Mono Bold';fill:#cccccc;stroke-width:0.12206034"
         id="path981" />
      <path
         d="m 110.25471,100.357 q 0.14686,-0.31595 0.37381,-0.467258 0.22696,-0.151304 0.55627,-0.151304 0.64527,0 0.89002,0.445012 0.24921,0.44501 0.24921,1.85125 v 2.80802 h -1.06803 v -3.19963 q 0,-0.55627 -0.0845,-0.74317 -0.0846,-0.18691 -0.30706,-0.18691 -0.22251,0 -0.31151,0.19136 -0.089,0.19135 -0.089,0.73872 v 3.19963 h -1.05468 v -3.19963 q 0,-0.54737 -0.089,-0.73872 -0.089,-0.19136 -0.31151,-0.19136 -0.2225,0 -0.30706,0.18691 -0.0846,0.1869 -0.0846,0.74317 v 3.19963 h -1.06803 v -4.984129 h 0.94788 v 0.516209 q 0.11125,-0.2937 0.35601,-0.462808 0.24475,-0.173554 0.54736,-0.173554 0.30261,0 0.55182,0.182455 0.2492,0.178007 0.3026,0.436107 z"
         style="font-style:normal;font-variant:normal;font-weight:bold;font-stretch:normal;font-size:9.11383915px;line-height:1.20000005;font-family:'Bitstream Vera Sans Mono';-inkscape-font-specification:'Bitstream Vera Sans Mono Bold';fill:#cccccc;stroke-width:0.12206034"
         id="path983" />
      <path
         d="m 116.44928,102.36401 q 0,-0.72092 -0.24031,-1.13033 -0.24031,-0.40941 -0.66307,-0.40941 -0.42276,0 -0.66751,0.40941 -0.24476,0.40941 -0.24476,1.13033 0,0.72092 0.24476,1.13033 0.24475,0.40941 0.66751,0.40941 0.42276,0 0.66307,-0.40941 0.24031,-0.40941 0.24031,-1.13033 z m -1.81565,-1.79785 q 0.24031,-0.41386 0.55626,-0.618567 0.32041,-0.209155 0.72092,-0.209155 0.88558,0 1.36174,0.676422 0.48061,0.67641 0.48061,1.94025 0,1.24603 -0.47171,1.93135 -0.47171,0.68532 -1.32614,0.68532 -0.44946,0 -0.78322,-0.21806 -0.33376,-0.21806 -0.53846,-0.64972 v 0.73872 h -1.29944 v -6.92438 h 1.29944 z"
         style="font-style:normal;font-variant:normal;font-weight:bold;font-stretch:normal;font-size:9.11383915px;line-height:1.20000005;font-family:'Bitstream Vera Sans Mono';-inkscape-font-specification:'Bitstream Vera Sans Mono Bold';fill:#cccccc;stroke-width:0.12206034"
         id="path985" />
      <path
         d="m 123.05325,104.59797 q -0.45391,0.1869 -0.92562,0.28035 -0.47172,0.0935 -0.99683,0.0935 -1.25048,0 -1.91355,-0.66752 -0.65862,-0.67197 -0.65862,-1.93135 0,-1.21934 0.63637,-1.9269 0.63637,-0.707572 1.73554,-0.707572 1.10808,0 1.71775,0.658622 0.61412,0.65416 0.61412,1.84679 v 0.52957 h -3.37764 q 0.004,0.58741 0.34711,0.87667 0.34266,0.28926 1.02352,0.28926 0.44946,0 0.88558,-0.12906 0.43611,-0.12905 0.91227,-0.40941 z m -1.10363,-2.80358 q -0.009,-0.51621 -0.26701,-0.77877 -0.25365,-0.26701 -0.75207,-0.26701 -0.44946,0 -0.71646,0.27591 -0.26701,0.27146 -0.31596,0.77432 z"
         style="font-style:normal;font-variant:normal;font-weight:bold;font-stretch:normal;font-size:9.11383915px;line-height:1.20000005;font-family:'Bitstream Vera Sans Mono';-inkscape-font-specification:'Bitstream Vera Sans Mono Bold';fill:#cccccc;stroke-width:0.12206034"
         id="path987" />
      <path
         d="m 127.15181,100.56616 v -2.64782 h 1.29943 v 6.92438 h -1.29943 V 104.104 q -0.20916,0.43166 -0.54292,0.64972 -0.32931,0.21806 -0.77877,0.21806 -0.85442,0 -1.32613,-0.68532 -0.47171,-0.68532 -0.47171,-1.93135 0,-1.26384 0.47616,-1.94025 0.48061,-0.676422 1.36618,-0.676422 0.40051,0 0.71647,0.209155 0.32041,0.204707 0.56072,0.618567 z m -1.81565,1.79785 q 0,0.72092 0.24031,1.13033 0.2403,0.40941 0.66306,0.40941 0.42276,0 0.66752,-0.40941 0.24476,-0.40941 0.24476,-1.13033 0,-0.72092 -0.24476,-1.13033 -0.24476,-0.40941 -0.66752,-0.40941 -0.42276,0 -0.66306,0.40941 -0.24031,0.40941 -0.24031,1.13033 z"
         style="font-style:normal;font-variant:normal;font-weight:bold;font-stretch:normal;font-size:9.11383915px;line-height:1.20000005;font-family:'Bitstream Vera Sans Mono';-inkscape-font-specification:'Bitstream Vera Sans Mono Bold';fill:#cccccc;stroke-width:0.12206034"
         id="path989" />
      <path
         d="m 132.63435,100.56616 v -2.64782 h 1.29944 v 6.92438 h -1.29944 V 104.104 q -0.20915,0.43166 -0.54291,0.64972 -0.32931,0.21806 -0.77877,0.21806 -0.85443,0 -1.32614,-0.68532 -0.47171,-0.68532 -0.47171,-1.93135 0,-1.26384 0.47616,-1.94025 0.48061,-0.676422 1.36619,-0.676422 0.40051,0 0.71647,0.209155 0.32041,0.204707 0.56071,0.618567 z m -1.81565,1.79785 q 0,0.72092 0.24031,1.13033 0.24031,0.40941 0.66307,0.40941 0.42276,0 0.66752,-0.40941 0.24475,-0.40941 0.24475,-1.13033 0,-0.72092 -0.24475,-1.13033 -0.24476,-0.40941 -0.66752,-0.40941 -0.42276,0 -0.66307,0.40941 -0.24031,0.40941 -0.24031,1.13033 z"
         style="font-style:normal;font-variant:normal;font-weight:bold;font-stretch:normal;font-size:9.11383915px;line-height:1.20000005;font-family:'Bitstream Vera Sans Mono';-inkscape-font-specification:'Bitstream Vera Sans Mono Bold';fill:#cccccc;stroke-width:0.12206034"
         id="path991" />
      <path
         d="m 139.50088,104.59797 q -0.45391,0.1869 -0.92562,0.28035 -0.47171,0.0935 -0.99683,0.0935 -1.25048,0 -1.91355,-0.66752 -0.65862,-0.67197 -0.65862,-1.93135 0,-1.21934 0.63637,-1.9269 0.63637,-0.707572 1.73555,-0.707572 1.10808,0 1.71774,0.658622 0.61412,0.65416 0.61412,1.84679 v 0.52957 h -3.37764 q 0.004,0.58741 0.34711,0.87667 0.34266,0.28926 1.02352,0.28926 0.44947,0 0.88558,-0.12906 0.43611,-0.12905 0.91227,-0.40941 z m -1.10363,-2.80358 q -0.009,-0.51621 -0.267,-0.77877 -0.25366,-0.26701 -0.75207,-0.26701 -0.44947,0 -0.71647,0.27591 -0.26701,0.27146 -0.31596,0.77432 z"
         style="font-style:normal;font-variant:normal;font-weight:bold;font-stretch:normal;font-size:9.11383915px;line-height:1.20000005;font-family:'Bitstream Vera Sans Mono';-inkscape-font-specification:'Bitstream Vera Sans Mono Bold';fill:#cccccc;stroke-width:0.12206034"
         id="path993" />
      <path
         d="m 143.59944,100.56616 v -2.64782 h 1.29943 v 6.92438 h -1.29943 V 104.104 q -0.20916,0.43166 -0.54291,0.64972 -0.32931,0.21806 -0.77878,0.21806 -0.85442,0 -1.32613,-0.68532 -0.47171,-0.68532 -0.47171,-1.93135 0,-1.26384 0.47616,-1.94025 0.48061,-0.676422 1.36619,-0.676422 0.40051,0 0.71646,0.209155 0.32041,0.204707 0.56072,0.618567 z m -1.81565,1.79785 q 0,0.72092 0.24031,1.13033 0.2403,0.40941 0.66307,0.40941 0.42276,0 0.66751,-0.40941 0.24476,-0.40941 0.24476,-1.13033 0,-0.72092 -0.24476,-1.13033 -0.24475,-0.40941 -0.66751,-0.40941 -0.42277,0 -0.66307,0.40941 -0.24031,0.40941 -0.24031,1.13033 z"
         style="font-style:normal;font-variant:normal;font-weight:bold;font-stretch:normal;font-size:9.11383915px;line-height:1.20000005;font-family:'Bitstream Vera Sans Mono';-inkscape-font-specification:'Bitstream Vera Sans Mono Bold';fill:#cccccc;stroke-width:0.12206034"
         id="path995" />
      <path
         d="M 152.76668,102.76452 V 98.919616 H 151.445 V 97.91834 h 2.62556 v 4.84618 q 0,0.58741 0.18246,0.83217 0.18245,0.24476 0.61857,0.24476 h 1.04132 v 1.00127 h -1.40623 q -0.93008,0 -1.33504,-0.48061 -0.40496,-0.48061 -0.40496,-1.59759 z"
         style="font-style:normal;font-variant:normal;font-weight:bold;font-stretch:normal;font-size:9.11383915px;line-height:1.20000005;font-family:'Bitstream Vera Sans Mono';-inkscape-font-specification:'Bitstream Vera Sans Mono Bold';fill:#cccccc;stroke-width:0.12206034"
         id="path997" />
      <path
         d="m 157.5105,99.858591 h 2.58107 v 3.982859 h 1.61985 v 1.00127 h -4.54802 v -1.00127 h 1.62429 v -2.98158 h -1.27719 z m 1.27719,-2.425314 h 1.30388 v 1.52194 h -1.30388 z"
         style="font-style:normal;font-variant:normal;font-weight:bold;font-stretch:normal;font-size:9.11383915px;line-height:1.20000005;font-family:'Bitstream Vera Sans Mono';-inkscape-font-specification:'Bitstream Vera Sans Mono Bold';fill:#cccccc;stroke-width:0.12206034"
         id="path999" />
      <path
         d="m 166.77565,101.60749 v 3.23523 h -1.29499 v -3.03498 q 0,-0.54291 -0.15575,-0.77432 -0.1513,-0.23585 -0.49841,-0.23585 -0.35156,0 -0.55627,0.31595 -0.20025,0.31596 -0.20025,0.87668 v 2.85252 h -1.29499 v -4.984129 h 1.29499 v 0.747619 q 0.13795,-0.41386 0.47171,-0.640816 0.33376,-0.226956 0.80547,-0.226956 0.70757,0 1.06803,0.471712 0.36046,0.46726 0.36046,1.39734 z"
         style="font-style:normal;font-variant:normal;font-weight:bold;font-stretch:normal;font-size:9.11383915px;line-height:1.20000005;font-family:'Bitstream Vera Sans Mono';-inkscape-font-specification:'Bitstream Vera Sans Mono Bold';fill:#cccccc;stroke-width:0.12206034"
         id="path1001" />
      <path
         d="m 168.20414,103.10273 v -3.244139 h 1.30388 v 3.043879 q 0,0.53846 0.1513,0.76987 0.15131,0.23141 0.50287,0.23141 0.35156,0 0.54736,-0.31151 0.20026,-0.31151 0.20026,-0.87222 v -2.861429 h 1.30388 v 4.984129 h -1.30388 V 104.104 q -0.13796,0.41386 -0.47172,0.64082 -0.3293,0.22696 -0.79657,0.22696 -0.71202,0 -1.07692,-0.47172 -0.36046,-0.47171 -0.36046,-1.39733 z"
         style="font-style:normal;font-variant:normal;font-weight:bold;font-stretch:normal;font-size:9.11383915px;line-height:1.20000005;font-family:'Bitstream Vera Sans Mono';-inkscape-font-specification:'Bitstream Vera Sans Mono Bold';fill:#cccccc;stroke-width:0.12206034"
         id="path1003" />
      <path
         d="m 178.07004,99.858591 -1.67769,2.385259 1.82455,2.59887 h -1.52194 l -0.97903,-1.67769 -0.97457,1.67769 h -1.52194 l 1.84235,-2.59887 -1.6955,-2.385259 h 1.52194 l 0.82772,1.486339 0.83217,-1.486339 z"
         style="font-style:normal;font-variant:normal;font-weight:bold;font-stretch:normal;font-size:9.11383915px;line-height:1.20000005;font-family:'Bitstream Vera Sans Mono';-inkscape-font-specification:'Bitstream Vera Sans Mono Bold';fill:#cccccc;stroke-width:0.12206034"
         id="path1005" />
    </g>
  </g>
</svg>
