<svg height="440.57675" viewBox="0 0 290.57484 116.56926" width="1098.2356" xmlns="http://www.w3.org/2000/svg">
<g transform="translate(29.8795,-9.2838)">
<path d="m35.6163,9.3491h155.1599a12.5172,12.5172 0 0,1 12.5172,12.5172v91.4044a12.5172,12.5172 0 0,1 -12.5172,12.5172h-155.1599a12.5172,12.5172 0 0,1 -12.5172-12.5172v-91.4044a12.5172,12.5172 0 0,1 12.5172-12.5172" fill="#1a1a1a" fill-opacity=".98" opacity=".98" stroke="#7a7a7a" stroke-width=".1306"/>
<g fill="#ccc" font-family="sans-serif" font-size="4.882" letter-spacing="0" word-spacing="0">
<path d="m107.1886,45.3606v.8455h-5.487v-.8455z" fill="#ccc"/>
<path d="m118.1537,45.3606v.8455h-5.487v-.8455z" fill="#ccc"/>
<path d="m123.6362,45.3606v.8455h-5.487v-.8455z" fill="#ccc"/>
<path d="m129.1188,45.3606v.8455h-5.487v-.8455z" fill="#ccc"/>
<path d="m134.6013,45.3606v.8455h-5.487v-.8455z" fill="#ccc"/>
<path d="m79.7759,56.2972v.8455h-5.487v-.8455z" fill="#ccc"/>
<path d="m90.741,56.2972v.8455h-5.487v-.8455z" fill="#ccc"/>
<path d="m100.331,48.0778q-.5874,1.0636-.8722,2.0604t-.2848,1.9937q0,.9879.2848,1.9937 .2848,1.0013.8722,2.0693h-1.0146q-.7076-1.028-1.0502-2.0248t-.3427-2.0382q0-1.0324.3427-2.0337 .3471-1.0057 1.0502-2.0204z" fill="#ccc"/>
<path d="m107.1886,56.2972v.8455h-5.487v-.8455z" fill="#ccc"/>
<path d="m108.5592,48.0778h1.0146q.7031,1.0146 1.0458,2.0204 .3471,1.0013.3471,2.0337 0,1.0369-.3427,2.0382t-1.0502,2.0248h-1.0146q.5874-1.068.8722-2.0693 .2848-1.0057.2848-1.9937 0-.9968-.2848-1.9937t-.8722-2.0604z" fill="#ccc"/>
<path d="m118.1537,56.2972v.8455h-5.487v-.8455z" fill="#ccc"/>
<path d="m133.115,48.3492h.9835l-3.4978,7.4895h-.9835z" fill="#ccc"/>
<path d="m145.5664,56.2972v.8455h-5.487v-.8455z" fill="#ccc"/>
<path d="m151.0489,56.2972v.8455h-5.487v-.8455z" fill="#ccc"/>
<path d="m72.807,59.2859h.9835l-3.4978,7.4895h-.9835z" fill="#ccc"/>
<path d="m83.0779,59.2859v2.4698h-1.1392v-2.4698z" fill="#ccc"/>
<path d="m94.0429,59.2859v2.4698h-1.1392v-2.4698z" fill="#ccc"/>
<path d="m99.4632,58.9654v9.1138h-1.0102v-9.1138z" fill="#ccc"/>
<path d="m110.4283,58.9654v9.1138h-1.0102v-9.1138z" fill="#ccc"/>
<path d="m116.6673,59.2859h.9835l-3.4978,7.4895h-.9835z" fill="#ccc"/>
<path d="m127.6324,59.2859h.9835l-3.4978,7.4895h-.9835z" fill="#ccc"/>
<path d="m130.6007,59.2859 3.4978,7.4895h-.9924l-3.4978-7.4895z" fill="#ccc"/>
<path d="m138.5975,59.2859h.9835l-3.4978,7.4895h-.9835z" fill="#ccc"/>
<path d="m149.5626,59.2859h.9835l-3.4978,7.4895h-.9835z" fill="#ccc"/>
<path d="m66.5679,69.9021v9.1138h-1.0102v-9.1138z" fill="#ccc"/>
<path d="m74.2933,78.1704v.8455h-5.487v-.8455z" fill="#ccc"/>
<path d="m77.533,69.9021v9.1138h-1.0102v-9.1138z" fill="#ccc"/>
<path d="m85.2584,78.1704v.8455h-5.487v-.8455z" fill="#ccc"/>
<path d="m88.4981,69.9021v9.1138h-1.0102v-9.1138z" fill="#ccc"/>
<path d="m96.2235,78.1704v.8455h-5.487v-.8455z" fill="#ccc"/>
<path d="m99.4632,69.9021v9.1138h-1.0102v-9.1138z" fill="#ccc"/>
<path d="m107.1886,78.1704v.8455h-5.487v-.8455z" fill="#ccc"/>
<path d="m111.1848,70.2225h.9835l-3.4978,7.4895h-.9835z" fill="#ccc"/>
<path d="m122.1499,70.2225h.9835l-3.4978,7.4895h-.9835z" fill="#ccc"/>
<path d="m125.1181,70.2225 3.4978,7.4895h-.9924l-3.4978-7.4895z" fill="#ccc"/>
<path d="m144.08,70.2225h.9835l-3.4978,7.4895h-.9835z" fill="#ccc"/>
<path d="m105.7022,81.1591h.9835l-3.4978,7.4895h-.9835z" fill="#ccc"/>
<path d="m112.6711,89.107v.8455h-5.487v-.8455z" fill="#ccc"/>
<path d="m118.1537,89.107v.8455h-5.487v-.8455z" fill="#ccc"/>
<path d="m123.6362,89.107v.8455h-5.487v-.8455z" fill="#ccc"/>
<path d="m127.6324,81.1591h.9835l-3.4978,7.4895h-.9835z" fill="#ccc"/>
<path d="m134.6013,89.107v.8455h-5.487v-.8455z" fill="#ccc"/>
<path d="m138.5975,81.1591h.9835l-3.4978,7.4895h-.9835z" fill="#ccc"/>
<path d="m49.9467,98.4435v1.4151h1.7044v1.0013h-1.7044v2.3586q0,.3338.1602.4806 .1647.1424.5429.1424h1.0013v1.0013h-1.0947q-1.1214,0-1.5175-.356t-.3961-1.3306v-2.2963h-1.2727v-1.0013h1.2727v-1.4151z" fill="#ccc"/>
<path d="m53.3422,99.8586h2.5811v3.9829h1.6198v1.0013h-4.548v-1.0013h1.6243v-2.9816h-1.2772zm1.2772-2.4253h1.3039v1.5219h-1.3039z" fill="#ccc"/>
<path d="m62.6073,101.6075v3.2352h-1.295v-3.035q0-.5429-.1558-.7743-.1513-.2359-.4984-.2359t-.5563.316-.2003.8767v2.8525h-1.295v-4.9841h1.295v.7476q.138-.4139.4717-.6408t.8055-.227q.7076,0 1.068.4717t.3605,1.3973z" fill="#ccc"/>
<path d="m66.4878,105.3812q-.2626.7031-.6319,1.0235-.3649.3249-.89.3249h-1.0769v-.9924h.5296q.4005,0 .5874-.138 .1869-.1335.3783-.6275l.0979-.267-1.8958-4.8462h1.3706l1.1392,3.2352 1.0903-3.2352h1.3706z" fill="#ccc"/>
<path d="m77.5775,99.4225v.4361h1.5308v1.0013h-1.5308v3.9829h-1.3039v-3.9829h-1.2104v-1.0013h1.2104v-.3471q0-.8989.3738-1.246t1.3884-.3471h1.0725v1.0013h-1.0191q-.2937,0-.4005.1068-.1024.1068-.1113.3961z" fill="#ccc"/>
<path d="m82.8865,102.502q-.7298,0-1.0191.1869t-.2893.6408q0,.3382.2003.5385t.5429.2003q.5162,0 .801-.3872t.2848-1.0903v-.089zm1.8156-.5029v2.8436h-1.295v-.5563q-.2359.3293-.6052.5073t-.8144.178q-.85,0-1.3261-.4495-.4717-.4495-.4717-1.2549 0-.8722.5652-1.2861 .5652-.4183 1.7489-.4183h.9034v-.2181q0-.316-.2314-.4762t-.672-.1647q-.4673,0-.9078.1202t-.9123.3738v-1.1125q.4317-.178.8767-.2626t.9434-.0846q1.2149,0 1.7044.494t.494,1.7667z" fill="#ccc"/>
<path d="m89.664,100.0143v1.1392q-.3605-.2314-.7521-.3471t-.7788-.1202q-.4361,0-.6586.1291-.2225.1246-.2225.3738 0,.356.9523.5785l.049.0134 .3738.089q.712.1691 1.0413.5474 .3338.3738.3338,1.0146 0,.7699-.5073,1.157-.5029.3827-1.5175.3827-.4495,0-.9212-.0801t-.9568-.2314v-1.1392q.4317.2447.8767.3738t.8678.129q.4584,0 .6942-.1335t.2359-.3872-.1691-.3827q-.1647-.1335-.7921-.2848l-.3605-.0801q-.7476-.1691-1.0903-.5296t-.3427-.9657q0-.7209.5207-1.1214t1.4641-.4005q.4228,0 .8411.0712t.8188.2047z" fill="#ccc"/>
<path d="m93.8071,98.4435v1.4151h1.7044v1.0013h-1.7044v2.3586q0,.3338.1602.4806 .1647.1424.5429.1424h1.0013v1.0013h-1.0947q-1.1214,0-1.5175-.356t-.3961-1.3306v-2.2963h-1.2727v-1.0013h1.2727v-1.4151z" fill="#ccc"/>
<path d="m106.6056,104.598q-.4539.1869-.9256.2803t-.9968.0935q-1.2505,0-1.9135-.6675t-.6586-1.9314q0-1.2193.6364-1.9269t1.7355-.7076q1.1081,0 1.7178.6586 .6141.6542.6141,1.8468v.5296h-3.3776q.004.5874.3471.8767t1.0235.2893q.4495,0 .8856-.1291t.9123-.4094zm-1.1036-2.8036q-.009-.5162-.267-.7788-.2536-.267-.7521-.267-.4495,0-.7165.2759-.267.2715-.316.7743z" fill="#ccc"/>
<path d="m110.2547,100.357q.1469-.316.3738-.4673t.5563-.1513q.6453,0 .89.445 .2492.445.2492,1.8512v2.808h-1.068v-3.1996q0-.5563-.0845-.7432t-.3071-.1869-.3115.1914-.089.7387v3.1996h-1.0547v-3.1996q0-.5474-.089-.7387t-.3115-.1914-.3071.1869-.0846.7432v3.1996h-1.068v-4.9841h.9479v.5162q.1113-.2937.356-.4628t.5474-.1736 .5518.1825 .3026.4361z" fill="#ccc"/>
<path d="m116.4493,102.364q0-.7209-.2403-1.1303t-.6631-.4094-.6675.4094-.2448,1.1303 .2448,1.1303 .6675.4094 .6631-.4094 .2403-1.1303zm-1.8156-1.7978q.2403-.4139.5563-.6186 .3204-.2092.7209-.2092 .8856,0 1.3617.6764t.4806,1.9403q0,1.246-.4717,1.9314t-1.3261.6853q-.4495,0-.7832-.2181t-.5385-.6497v.7387h-1.2994v-6.9244h1.2994z" fill="#ccc"/>
<path d="m123.0533,104.598q-.4539.1869-.9256.2803t-.9968.0935q-1.2505,0-1.9135-.6675t-.6586-1.9314q0-1.2193.6364-1.9269t1.7355-.7076q1.1081,0 1.7178.6586 .6141.6542.6141,1.8468v.5296h-3.3776q.004.5874.3471.8767t1.0235.2893q.4495,0 .8856-.1291t.9123-.4094zm-1.1036-2.8036q-.009-.5162-.267-.7788-.2536-.267-.7521-.267-.4495,0-.7165.2759-.267.2715-.316.7743z" fill="#ccc"/>
<path d="m127.1518,100.5662v-2.6478h1.2994v6.9244h-1.2994v-.7387q-.2092.4317-.5429.6497t-.7788.2181q-.8544,0-1.3261-.6853t-.4717-1.9314q0-1.2638.4762-1.9403t1.3662-.6764q.4005,0 .7165.2092 .3204.2047.5607.6186zm-1.8156,1.7978q0,.7209.2403,1.1303t.6631.4094 .6675-.4094 .2448-1.1303-.2448-1.1303-.6675-.4094-.6631.4094-.2403,1.1303z" fill="#ccc"/>
<path d="m132.6344,100.5662v-2.6478h1.2994v6.9244h-1.2994v-.7387q-.2092.4317-.5429.6497t-.7788.2181q-.8544,0-1.3261-.6853t-.4717-1.9314q0-1.2638.4762-1.9403t1.3662-.6764q.4005,0 .7165.2092 .3204.2047.5607.6186zm-1.8156,1.7978q0,.7209.2403,1.1303t.6631.4094 .6675-.4094 .2447-1.1303-.2447-1.1303-.6675-.4094-.6631.4094-.2403,1.1303z" fill="#ccc"/>
<path d="m139.5009,104.598q-.4539.1869-.9256.2803t-.9968.0935q-1.2505,0-1.9135-.6675t-.6586-1.9314q0-1.2193.6364-1.9269t1.7355-.7076q1.1081,0 1.7177.6586 .6141.6542.6141,1.8468v.5296h-3.3776q.004.5874.3471.8767t1.0235.2893q.4495,0 .8856-.1291t.9123-.4094zm-1.1036-2.8036q-.009-.5162-.267-.7788-.2537-.267-.7521-.267-.4495,0-.7165.2759-.267.2715-.316.7743z" fill="#ccc"/>
<path d="m143.5994,100.5662v-2.6478h1.2994v6.9244h-1.2994v-.7387q-.2092.4317-.5429.6497t-.7788.2181q-.8544,0-1.3261-.6853t-.4717-1.9314q0-1.2638.4762-1.9403t1.3662-.6764q.4005,0 .7165.2092 .3204.2047.5607.6186zm-1.8156,1.7978q0,.7209.2403,1.1303t.6631.4094 .6675-.4094 .2448-1.1303-.2448-1.1303-.6675-.4094-.6631.4094-.2403,1.1303z" fill="#ccc"/>
<path d="m152.7667,102.7645v-3.8449h-1.3217v-1.0013h2.6256v4.8462q0,.5874.1825.8322t.6186.2448h1.0413v1.0013h-1.4062q-.9301,0-1.335-.4806-.405-.4806-.405-1.5976z" fill="#ccc"/>
<path d="m157.5105,99.8586h2.5811v3.9829h1.6199v1.0013h-4.548v-1.0013h1.6243v-2.9816h-1.2772zm1.2772-2.4253h1.3039v1.5219h-1.3039z" fill="#ccc"/>
<path d="m166.7757,101.6075v3.2352h-1.295v-3.035q0-.5429-.1557-.7743-.1513-.2359-.4984-.2359t-.5563.316-.2003.8767v2.8525h-1.295v-4.9841h1.295v.7476q.1379-.4139.4717-.6408t.8055-.227q.7076,0 1.068.4717t.3605,1.3973z" fill="#ccc"/>
<path d="m168.2041,103.1027v-3.2441h1.3039v3.0439q0,.5385.1513.7699t.5029.2314 .5474-.3115 .2003-.8722v-2.8614h1.3039v4.9841h-1.3039v-.7387q-.138.4139-.4717.6408t-.7966.227q-.712,0-1.0769-.4717t-.3605-1.3973z" fill="#ccc"/>
<path d="m178.07,99.8586-1.6777,2.3853 1.8245,2.5989h-1.5219l-.979-1.6777-.9746,1.6777h-1.5219l1.8424-2.5989-1.6955-2.3853h1.5219l.8277,1.4863 .8322-1.4863z" fill="#ccc"/>
</g>
</g>
</svg>
